<svg width="15" height="16" viewBox="0 0 15 16" fill="none" xmlns="http://www.w3.org/2000/svg">
<g id="html-icon 1" clip-path="url(#clip0_2040_4326)">
<g id="Group">
<path id="Vector" fill-rule="evenodd" clip-rule="evenodd" d="M14.1808 0.42627L12.9548 14.2083L7.4434 15.7412L1.94692 14.2107L0.722168 0.42627H14.1808Z" fill="#E44D26"/>
<path id="Vector_2" fill-rule="evenodd" clip-rule="evenodd" d="M7.45068 14.5695L11.905 13.3306L12.9521 1.55273H7.45068V14.5695Z" fill="#F16529"/>
<path id="Vector_3" fill-rule="evenodd" clip-rule="evenodd" d="M5.06866 4.93417H7.45233V3.24414H3.22656L3.26631 3.69781L3.67994 8.35661H7.44985V6.66533H5.22269L5.06866 4.93417ZM5.44751 9.20163H3.75696L3.99296 11.8563L7.44488 12.8172L7.45233 12.8148V11.0562L7.44488 11.0587L5.568 10.5502L5.44751 9.20163Z" fill="#EBEBEB"/>
<path id="Vector_4" fill-rule="evenodd" clip-rule="evenodd" d="M7.4458 8.35688H9.52018L9.32516 10.5492L7.4458 11.0577V12.8163L10.9002 11.8553L10.925 11.5699L11.3213 7.11927L11.3623 6.6656H7.4458V8.35688ZM7.4458 4.9307V4.93444H11.5151L11.5486 4.55431L11.6256 3.69683L11.6654 3.24316H7.4458V4.9307Z" fill="white"/>
</g>
</g>
<defs>
<clipPath id="clip0_2040_4326">
<rect width="13.4586" height="15.315" fill="white" transform="translate(0.722168 0.42627)"/>
</clipPath>
</defs>
</svg>
