<svg width="29" height="28" viewBox="0 0 29 28" fill="none" xmlns="http://www.w3.org/2000/svg">
<g id="Vector">
<path id="Subtract" fill-rule="evenodd" clip-rule="evenodd" d="M23.067 26.1952C24.9579 26.1952 26.4901 24.663 26.4901 22.7721V4.97235C26.4901 3.08147 24.9579 1.54932 23.067 1.54932H5.26727C3.37707 1.54932 1.84424 3.08147 1.84424 4.97235V22.7721C1.84424 24.663 3.37707 26.1952 5.26727 26.1952H23.067ZM9.37391 10.4493H5.95087V22.0876H9.37391V10.4493ZM7.63295 9.08004H7.65212C8.71326 9.08004 9.37391 8.31807 9.37391 7.36784C9.35474 6.39638 8.71326 5.65701 7.67198 5.65701C6.63206 5.65701 5.95087 6.39638 5.95087 7.36784C5.95087 8.31876 6.61152 9.08004 7.63295 9.08004ZM18.9584 22.0876H22.3814L22.3807 15.4291C22.3807 11.9896 20.5439 10.4493 18.0944 10.4493C16.1173 10.4493 15.3444 11.4762 14.8508 12.2402V10.4493H11.4277V22.0876H14.8508V15.9261C14.8508 15.869 14.8499 15.8023 14.849 15.7298C14.8444 15.3775 14.8381 14.8877 14.9199 14.689C15.1896 14.0195 15.7455 13.3267 16.7731 13.3267C18.1198 13.3267 18.9584 14.3536 18.9584 15.8583V22.0876Z" fill="#4F4F4F"/>
</g>
</svg>
