<svg width="21" height="22" viewBox="0 0 21 22" fill="none" xmlns="http://www.w3.org/2000/svg">
<g id="location_on_24dp_E8EAED_FILL1_wght400_GRAD0_opsz24 1">
<path id="Vector" d="M10.8332 10.8721C11.2915 10.8721 11.6839 10.7007 12.0103 10.358C12.3366 10.0153 12.4998 9.60332 12.4998 9.12207C12.4998 8.64082 12.3366 8.22884 12.0103 7.88613C11.6839 7.54342 11.2915 7.37207 10.8332 7.37207C10.3748 7.37207 9.98248 7.54342 9.65609 7.88613C9.3297 8.22884 9.1665 8.64082 9.1665 9.12207C9.1665 9.60332 9.3297 10.0153 9.65609 10.358C9.98248 10.7007 10.3748 10.8721 10.8332 10.8721ZM10.8332 19.6221C8.59706 17.6242 6.92692 15.7684 5.82275 14.0549C4.71859 12.3413 4.1665 10.7554 4.1665 9.29707C4.1665 7.10957 4.83664 5.36686 6.17692 4.06895C7.5172 2.77103 9.06928 2.12207 10.8332 2.12207C12.5971 2.12207 14.1491 2.77103 15.4894 4.06895C16.8297 5.36686 17.4998 7.10957 17.4998 9.29707C17.4998 10.7554 16.9478 12.3413 15.8436 14.0549C14.7394 15.7684 13.0693 17.6242 10.8332 19.6221Z" fill="#4F4F4F"/>
</g>
</svg>
