<svg width="17" height="18" viewBox="0 0 17 18" fill="none" xmlns="http://www.w3.org/2000/svg">
<g id="Group">
<path id="Vector" d="M8.35419 11.9231C12.7672 11.9231 16.3446 10.5571 16.3446 8.87218C16.3446 7.18722 12.7672 5.82129 8.35419 5.82129C3.9412 5.82129 0.36377 7.18722 0.36377 8.87218C0.36377 10.5571 3.9412 11.9231 8.35419 11.9231Z" stroke="#0592B8" stroke-width="0.726402"/>
<path id="Vector_2" d="M5.71189 10.3976C7.91839 14.2193 10.89 16.6345 12.3493 15.792C13.8085 14.9495 13.2027 11.1684 10.9962 7.34667C8.78969 3.52491 5.81805 1.10972 4.35883 1.9522C2.89961 2.79468 3.5054 6.5758 5.71189 10.3976Z" stroke="#0592B8" stroke-width="0.726402"/>
<path id="Vector_3" d="M5.7117 7.34656C3.50521 11.1683 2.89942 14.9494 4.35864 15.7919C5.81786 16.6344 8.7895 14.2192 10.996 10.3974C13.2025 6.57569 13.8083 2.79457 12.3491 1.95209C10.8898 1.10962 7.9182 3.5248 5.7117 7.34656Z" stroke="#0592B8" stroke-width="0.726402"/>
<path id="Vector_4" d="M8.35387 10.3615C9.17629 10.3615 9.84299 9.69485 9.84299 8.87243C9.84299 8.05 9.17629 7.3833 8.35387 7.3833C7.53145 7.3833 6.86475 8.05 6.86475 8.87243C6.86475 9.69485 7.53145 10.3615 8.35387 10.3615Z" fill="#0592B8"/>
</g>
</svg>
