<svg width="18" height="11" viewBox="0 0 18 11" fill="none" xmlns="http://www.w3.org/2000/svg">
<g id="Tailwind_CSS_Logo 1" clip-path="url(#clip0_2040_4352)">
<g id="Clip path group">
<mask id="mask0_2040_4352" style="mask-type:luminance" maskUnits="userSpaceOnUse" x="0" y="0" width="18" height="11">
<g id="prefix__clip0">
<path id="Vector" d="M0.939453 0.341797H17.6467V10.3661H0.939453V0.341797Z" fill="white"/>
</g>
</mask>
<g mask="url(#mask0_2040_4352)">
<g id="Group">
<path id="Vector_2" fill-rule="evenodd" clip-rule="evenodd" d="M9.29308 0.341797C7.06544 0.341797 5.67317 1.45561 5.11627 3.68325C5.95163 2.56943 6.92622 2.15175 8.04003 2.4302C8.67553 2.58892 9.12972 3.05023 9.63248 3.56042C10.4514 4.39176 11.3994 5.35397 13.4699 5.35397C15.6975 5.35397 17.0898 4.24015 17.6467 2.01252C16.8113 3.12634 15.8368 3.54402 14.7229 3.26557C14.0874 3.10685 13.6332 2.64554 13.1305 2.13535C12.3115 1.30401 11.3635 0.341797 9.29308 0.341797ZM5.11627 5.35397C2.88863 5.35397 1.49636 6.46779 0.939453 8.69542C1.77482 7.5816 2.74941 7.16392 3.86322 7.44238C4.49872 7.60141 4.95291 8.0624 5.45567 8.57259C6.27463 9.40393 7.22262 10.3661 9.29308 10.3661C11.5207 10.3661 12.913 9.25233 13.4699 7.0247C12.6345 8.13851 11.6599 8.55619 10.5461 8.27774C9.91063 8.11902 9.45644 7.65772 8.95367 7.14753C8.13471 6.31618 7.18673 5.35397 5.11627 5.35397Z" fill="#38BDF8"/>
</g>
</g>
</g>
</g>
<defs>
<clipPath id="clip0_2040_4352">
<rect width="16.7072" height="10.21" fill="white" transform="translate(0.939453 0.341797)"/>
</clipPath>
</defs>
</svg>
